<?xml version="1.0" encoding="UTF-8" standalone="no"?>
<!-- Created with Inkscape (http://www.inkscape.org/) -->

<svg
   width="210mm"
   height="297mm"
   viewBox="0 0 210 297"
   version="1.1"
   id="svg1"
   inkscape:version="1.4.4 (dcaf3e7d, 2026-05-05)"
   sodipodi:docname="2_practice.svg"
   xml:space="preserve"
   xmlns:inkscape="http://www.inkscape.org/namespaces/inkscape"
   xmlns:sodipodi="http://sodipodi.sourceforge.net/DTD/sodipodi-0.dtd"
   xmlns:xlink="http://www.w3.org/1999/xlink"
   xmlns="http://www.w3.org/2000/svg"
   xmlns:svg="http://www.w3.org/2000/svg"><sodipodi:namedview
     id="namedview1"
     pagecolor="#ffffff"
     bordercolor="#000000"
     borderopacity="0.25"
     inkscape:showpageshadow="2"
     inkscape:pageopacity="0.0"
     inkscape:pagecheckerboard="0"
     inkscape:deskcolor="#d1d1d1"
     inkscape:document-units="mm"
     inkscape:zoom="0.74118967"
     inkscape:cx="629.39355"
     inkscape:cy="395.98501"
     inkscape:window-width="1589"
     inkscape:window-height="874"
     inkscape:window-x="337"
     inkscape:window-y="138"
     inkscape:window-maximized="0"
     inkscape:current-layer="g1" /><defs
     id="defs1"><radialGradient
       id="beadOr"
       cx="35%"
       cy="30%"
       r="75%"><stop
         offset="0%"
         stop-color="#ffb066"
         id="stop1" /><stop
         offset="55%"
         stop-color="#d9602a"
         id="stop2" /><stop
         offset="100%"
         stop-color="#a33c14"
         id="stop3" /></radialGradient><radialGradient
       id="beadTeal"
       cx="35%"
       cy="30%"
       r="75%"><stop
         offset="0%"
         stop-color="#7fd9c8"
         id="stop4" /><stop
         offset="55%"
         stop-color="#3fae9a"
         id="stop5" /><stop
         offset="100%"
         stop-color="#247a6c"
         id="stop6" /></radialGradient><radialGradient
       inkscape:collect="always"
       xlink:href="#beadTeal"
       id="radialGradient52"
       cx="419.50901"
       cy="375.84921"
       r="11.149552"
       gradientTransform="matrix(0.87447463,0,0,1.1435437,-6.4134167,12.60517)"
       fx="419.50901"
       fy="375.84921"
       gradientUnits="userSpaceOnUse" /><radialGradient
       inkscape:collect="always"
       xlink:href="#beadTeal"
       id="radialGradient53"
       cx="262.1574"
       cy="375.84921"
       r="11.149552"
       gradientTransform="matrix(0.87447463,0,0,1.1435437,16.87438,27.267857)"
       fx="262.1574"
       fy="375.84921"
       gradientUnits="userSpaceOnUse" /><radialGradient
       inkscape:collect="always"
       xlink:href="#beadTeal"
       id="radialGradient54"
       cx="340.83321"
       cy="443.53354"
       r="11.149552"
       gradientTransform="matrix(0.87447463,0,0,1.1435437,0.67459113,11.742659)"
       fx="340.83321"
       fy="443.53354"
       gradientUnits="userSpaceOnUse" /><radialGradient
       inkscape:collect="always"
       xlink:href="#beadTeal"
       id="radialGradient55"
       cx="340.83321"
       cy="408.72943"
       r="11.149552"
       gradientTransform="matrix(0.87447463,0,0,1.1435437,0.67459113,32.442923)"
       fx="340.83321"
       fy="408.72943"
       gradientUnits="userSpaceOnUse" /><radialGradient
       inkscape:collect="always"
       xlink:href="#beadOr"
       id="radialGradient56"
       cx="435.2"
       cy="292.1"
       r="9"
       fx="435.2"
       fy="292.1"
       gradientUnits="userSpaceOnUse"
       gradientTransform="translate(-57.788237,-44.850572)" /><radialGradient
       inkscape:collect="always"
       xlink:href="#beadOr"
       id="radialGradient57"
       cx="435.2"
       cy="203.1"
       r="9"
       fx="435.2"
       fy="203.1"
       gradientUnits="userSpaceOnUse"
       gradientTransform="translate(-71.588413,-2.587533)" /><radialGradient
       inkscape:collect="always"
       xlink:href="#beadOr"
       id="radialGradient58"
       cx="382.80001"
       cy="131.1"
       r="9"
       fx="382.80001"
       fy="131.1"
       gradientUnits="userSpaceOnUse"
       gradientTransform="translate(-59.513259,41.400528)" /><radialGradient
       inkscape:collect="always"
       xlink:href="#beadOr"
       id="radialGradient59"
       cx="298.2"
       cy="103.6"
       r="9"
       fx="298.2"
       fy="103.6"
       gradientUnits="userSpaceOnUse"
       gradientTransform="translate(-22.425286,69.863391)" /><radialGradient
       inkscape:collect="always"
       xlink:href="#beadOr"
       id="radialGradient60"
       cx="213.59999"
       cy="131.1"
       r="9"
       fx="213.59999"
       fy="131.1"
       gradientUnits="userSpaceOnUse"
       gradientTransform="translate(22.425286,70.725902)" /><radialGradient
       inkscape:collect="always"
       xlink:href="#beadOr"
       id="radialGradient61"
       cx="161.2"
       cy="203.1"
       r="9"
       fx="161.2"
       fy="203.1"
       gradientUnits="userSpaceOnUse"
       gradientTransform="translate(58.650748,43.988061)" /><radialGradient
       inkscape:collect="always"
       xlink:href="#beadOr"
       id="radialGradient62"
       cx="161.2"
       cy="292.1"
       r="9"
       fx="161.2"
       fy="292.1"
       gradientUnits="userSpaceOnUse"
       gradientTransform="translate(74.175946,0.862511)" /><radialGradient
       inkscape:collect="always"
       xlink:href="#beadOr"
       id="radialGradient63"
       cx="213.59999"
       cy="364.1"
       r="9"
       fx="213.59999"
       fy="364.1"
       gradientUnits="userSpaceOnUse"
       gradientTransform="translate(61.238281,-42.263039)" /><radialGradient
       inkscape:collect="always"
       xlink:href="#beadOr"
       id="radialGradient64"
       cx="298.2"
       cy="391.6"
       r="9"
       fx="298.2"
       fy="391.6"
       gradientUnits="userSpaceOnUse"
       gradientTransform="translate(24.150308,-71.588413)" /><radialGradient
       inkscape:collect="always"
       xlink:href="#beadOr"
       id="radialGradient65"
       cx="382.80001"
       cy="364.1"
       r="9"
       fx="382.80001"
       fy="364.1"
       gradientUnits="userSpaceOnUse"
       gradientTransform="translate(-21.562775,-70.725902)" /><radialGradient
       inkscape:collect="always"
       xlink:href="#beadOr"
       id="radialGradient66"
       gradientUnits="userSpaceOnUse"
       gradientTransform="translate(0.86251095,-144.03934)"
       cx="298.2"
       cy="391.6"
       fx="298.2"
       fy="391.6"
       r="9" /><linearGradient
       id="t2feather"
       x1="0"
       y1="0"
       x2="0"
       y2="1"><stop
         offset="0%"
         stop-color="#f4eedd"
         id="stop1-0" /><stop
         offset="58%"
         stop-color="#ece1c6"
         id="stop2-2" /><stop
         offset="100%"
         stop-color="#7c5a34"
         id="stop3-3" /></linearGradient><radialGradient
       inkscape:collect="always"
       xlink:href="#beadTeal"
       id="radialGradient1"
       cx="282.28378"
       cy="421.58422"
       r="11.149552"
       gradientTransform="matrix(0.87447463,0,0,1.1435437,1.3491823,-8.095094)"
       fx="282.28378"
       fy="421.58422"
       gradientUnits="userSpaceOnUse" /><radialGradient
       inkscape:collect="always"
       xlink:href="#beadTeal"
       id="radialGradient2"
       cx="340.83321"
       cy="478.42507"
       r="11.149552"
       gradientTransform="matrix(0.87447463,0,0,1.1435437,0.33729555,-7.7577984)"
       fx="340.83321"
       fy="478.42507"
       gradientUnits="userSpaceOnUse" /><radialGradient
       inkscape:collect="always"
       xlink:href="#beadTeal"
       id="radialGradient3"
       cx="399.38267"
       cy="421.58422"
       r="11.149552"
       gradientTransform="matrix(0.87447463,0,0,1.1435437,1.3491823,-8.095094)"
       fx="399.38267"
       fy="421.58422"
       gradientUnits="userSpaceOnUse" /></defs><g
     inkscape:label="Layer 1"
     inkscape:groupmode="layer"
     id="layer1"><g
       id="g1"
       transform="matrix(0.26458333,0,0,0.26458333,29.609973,19.162745)"><g
         transform="rotate(180,150.16865,353.13994)"
         id="g20"><path
           d="m 0,0 c 17,19 17,94.8 7.7,135.9 -4.3,17.4 -11.1,17.4 -15.4,0 C -17,94.8 -17,19 0,0 Z"
           fill="#efe6cf"
           stroke="#ddccac"
           stroke-width="1.1"
           id="path17" /><path
           d="M 0,0 C 17,19 17,94.8 7.7,135.9 3.4,153.3 0,150.1 0,142.2 0,86.9 0,31.6 0,0 Z"
           fill="#ddccac"
           opacity="0.5"
           id="path18" /><path
           d="m -7.7,135.9 c 4.3,17.4 11.1,17.4 15.4,0 -2.3,26.8 -13.1,26.8 -15.4,0 z"
           fill="#6e4a2c"
           id="path19" /><path
           d="m 0,6.3 v 147"
           stroke="#8a6a45"
           stroke-width="1.8"
           fill="none"
           stroke-linecap="round"
           id="path20" /></g><g
         id="g45"><circle
           cx="300"
           cy="250"
           fill="none"
           stroke="#c8a06a"
           stroke-width="14.666"
           id="circle30"
           r="155.826" /><path
           d="m 213.51445,369.6434 c 0,37.02995 39.57436,80.23156 39.57436,117.26151"
           stroke="#3a3026"
           stroke-width="2.71813"
           fill="none"
           id="path6" /><ellipse
           cx="248.07437"
           cy="460.46786"
           rx="6.5"
           ry="8.5"
           fill="url(#beadTeal)"
           id="ellipse6"
           style="fill:url(#radialGradient53)" /><ellipse
           cx="250.14919"
           cy="477.40491"
           rx="6.5"
           ry="8.5"
           fill="url(#beadTeal)"
           id="ellipse7"
           style="fill:url(#radialGradient1)" /><g
           transform="rotate(-164,150.43134,281.6969)"
           id="g10"><path
             d="m 0,0 c 12,13.9 12,69.6 5.4,99.8 -3,12.7 -7.8,12.7 -10.8,0 C -12,69.6 -12,13.9 0,0 Z"
             fill="#efe6cf"
             stroke="#ddccac"
             stroke-width="1.1"
             id="path7" /><path
             d="M 0,0 C 12,13.9 12,69.6 5.4,99.8 2.4,112.5 0,110.2 0,104.4 0,63.8 0,23.2 0,0 Z"
             fill="#ddccac"
             opacity="0.5"
             id="path8" /><path
             d="m -5.4,99.8 c 3,12.7 7.8,12.7 10.8,0 -1.6,19.7 -9.2,19.7 -10.8,0 z"
             fill="#6e4a2c"
             id="path9" /><path
             d="M 0,4.6 V 112.5"
             stroke="#8a6a45"
             stroke-width="1.8"
             fill="none"
             stroke-linecap="round"
             id="path10" /></g><g
           transform="rotate(171.37877,112.10531,308.28179)"
           id="g14"><path
             d="m 0,0 c 12,13.9 12,69.6 5.4,99.8 -3,12.7 -7.8,12.7 -10.8,0 C -12,69.6 -12,13.9 0,0 Z"
             fill="#efe6cf"
             stroke="#ddccac"
             stroke-width="1.1"
             id="path11" /><path
             d="M 0,0 C 12,13.9 12,69.6 5.4,99.8 2.4,112.5 0,110.2 0,104.4 0,63.8 0,23.2 0,0 Z"
             fill="#ddccac"
             opacity="0.5"
             id="path12" /><path
             d="m -5.4,99.8 c 3,12.7 7.8,12.7 10.8,0 -1.6,19.7 -9.2,19.7 -10.8,0 z"
             fill="#6e4a2c"
             id="path13" /><path
             d="M 0,4.6 V 112.5"
             stroke="#8a6a45"
             stroke-width="1.8"
             fill="none"
             stroke-linecap="round"
             id="path14" /></g><path
           d="m 300.33729,396.38931 v 160.5156"
           stroke="#3a3026"
           stroke-width="2.29272"
           fill="none"
           id="path15"
           sodipodi:nodetypes="cc" /><ellipse
           cx="300.67459"
           cy="503.24292"
           rx="6.5"
           ry="8.5"
           fill="url(#beadTeal)"
           id="ellipse15"
           style="fill:url(#radialGradient55)" /><ellipse
           cx="300.67459"
           cy="522.34265"
           rx="6.5"
           ry="8.5"
           fill="url(#beadTeal)"
           id="ellipse16"
           style="fill:url(#radialGradient54)" /><ellipse
           cx="300.33728"
           cy="542.74219"
           rx="6.5"
           ry="8.5"
           fill="url(#beadTeal)"
           id="ellipse17"
           style="fill:url(#radialGradient2)" /><path
           d="m 386.74591,369.6434 c 0,30 -34.36107,83.21396 -34.36107,113.21396"
           stroke="#3a3026"
           stroke-width="2.2"
           fill="none"
           id="path21"
           sodipodi:nodetypes="cc" /><ellipse
           cx="362.38657"
           cy="445.80518"
           rx="6.5"
           ry="8.5"
           fill="url(#beadTeal)"
           id="ellipse21"
           style="fill:url(#radialGradient52)" /><ellipse
           cx="352.54919"
           cy="477.40491"
           rx="6.5"
           ry="8.5"
           fill="url(#beadTeal)"
           id="ellipse22"
           style="fill:url(#radialGradient3)" /><g
           transform="rotate(164,151.90159,323.30747)"
           id="g25"><path
             d="m 0,0 c 12,13.9 12,69.6 5.4,99.8 -3,12.7 -7.8,12.7 -10.8,0 C -12,69.6 -12,13.9 0,0 Z"
             fill="#efe6cf"
             stroke="#ddccac"
             stroke-width="1.1"
             id="path22" /><path
             d="M 0,0 C 12,13.9 12,69.6 5.4,99.8 2.4,112.5 0,110.2 0,104.4 0,63.8 0,23.2 0,0 Z"
             fill="#ddccac"
             opacity="0.5"
             id="path23" /><path
             d="m -5.4,99.8 c 3,12.7 7.8,12.7 10.8,0 -1.6,19.7 -9.2,19.7 -10.8,0 z"
             fill="#6e4a2c"
             id="path24" /><path
             d="M 0,4.6 V 112.5"
             stroke="#8a6a45"
             stroke-width="1.8"
             fill="none"
             stroke-linecap="round"
             id="path25" /></g><g
           transform="rotate(179,172.75205,299.80332)"
           id="g29"><path
             d="m 0,0 c 12,13.9 12,69.6 5.4,99.8 -3,12.7 -7.8,12.7 -10.8,0 C -12,69.6 -12,13.9 0,0 Z"
             fill="#efe6cf"
             stroke="#ddccac"
             stroke-width="1.1"
             id="path26" /><path
             d="M 0,0 C 12,13.9 12,69.6 5.4,99.8 2.4,112.5 0,110.2 0,104.4 0,63.8 0,23.2 0,0 Z"
             fill="#ddccac"
             opacity="0.5"
             id="path27" /><path
             d="m -5.4,99.8 c 3,12.7 7.8,12.7 10.8,0 -1.6,19.7 -9.2,19.7 -10.8,0 z"
             fill="#6e4a2c"
             id="path28" /><path
             d="M 0,4.6 V 112.5"
             stroke="#8a6a45"
             stroke-width="1.8"
             fill="none"
             stroke-linecap="round"
             id="path29" /></g><path
           d="m 300,250 q 48,-81 0,-147.2 -48,66.2 0,147.2 z"
           fill="none"
           stroke="#3a3026"
           stroke-width="2"
           id="path32" /><path
           d="M 300,250 Q 386.4,212.7 386.5,130.9 308.8,156.3 300,250 Z"
           fill="none"
           stroke="#3a3026"
           stroke-width="2"
           id="path33" /><path
           d="M 300,250 Q 391.8,270.6 440,204.5 362.2,179.3 300,250 Z"
           fill="none"
           stroke="#3a3026"
           stroke-width="2"
           id="path34" /><path
           d="m 300,250 q 62.2,70.7 140,45.5 Q 391.8,229.4 300,250 Z"
           fill="none"
           stroke="#3a3026"
           stroke-width="2"
           id="path35" /><path
           d="m 300,250 q 8.8,93.7 86.5,119.1 Q 386.4,287.3 300,250 Z"
           fill="none"
           stroke="#3a3026"
           stroke-width="2"
           id="path36" /><path
           d="m 300,250 q -48,81 0,147.2 48,-66.2 0,-147.2 z"
           fill="none"
           stroke="#3a3026"
           stroke-width="2"
           id="path37" /><path
           d="M 300,250 Q 213.6,287.3 213.5,369.1 291.2,343.7 300,250 Z"
           fill="none"
           stroke="#3a3026"
           stroke-width="2"
           id="path38" /><path
           d="M 300,250 Q 208.2,229.4 160,295.5 237.8,320.7 300,250 Z"
           fill="none"
           stroke="#3a3026"
           stroke-width="2"
           id="path39" /><path
           d="M 300,250 Q 237.8,179.3 160,204.5 208.2,270.6 300,250 Z"
           fill="none"
           stroke="#3a3026"
           stroke-width="2"
           id="path40" /><path
           d="M 300,250 Q 291.2,156.3 213.5,130.9 213.6,212.7 300,250 Z"
           fill="none"
           stroke="#3a3026"
           stroke-width="2"
           id="path41" /><circle
           cx="300"
           cy="250"
           r="10"
           fill="none"
           stroke="#3a3026"
           stroke-width="2"
           id="circle41" /><circle
           cx="277.57471"
           cy="175.86339"
           r="6"
           fill="url(#beadOr)"
           id="circle43"
           style="fill:url(#radialGradient59)" /><circle
           cx="325.08676"
           cy="174.90053"
           r="6"
           fill="url(#beadOr)"
           id="circle44"
           style="fill:url(#radialGradient58)" /><circle
           cx="365.41159"
           cy="202.91246"
           r="6"
           fill="url(#beadOr)"
           id="circle45"
           style="fill:url(#radialGradient57)" /><circle
           cx="379.21176"
           cy="249.64943"
           r="6"
           fill="url(#beadOr)"
           id="circle46"
           style="fill:url(#radialGradient56)" /><circle
           cx="363.03723"
           cy="295.77411"
           r="6"
           fill="url(#beadOr)"
           id="circle47"
           style="fill:url(#radialGradient65)" /><circle
           cx="324.1503"
           cy="322.41159"
           r="6"
           fill="url(#beadOr)"
           id="circle48"
           style="fill:url(#radialGradient64)" /><circle
           cx="276.63828"
           cy="324.23697"
           r="6"
           fill="url(#beadOr)"
           id="circle49"
           style="fill:url(#radialGradient63)" /><circle
           cx="237.17595"
           cy="295.36252"
           r="6"
           fill="url(#beadOr)"
           id="circle50"
           style="fill:url(#radialGradient62)" /><circle
           cx="221.65074"
           cy="249.48807"
           r="6"
           fill="url(#beadOr)"
           id="circle51"
           style="fill:url(#radialGradient61)" /><circle
           cx="237.82529"
           cy="204.22591"
           r="6"
           fill="url(#beadOr)"
           id="circle52"
           style="fill:url(#radialGradient60)" /><path
           d="m 280.02025,87.004689 c -7.2835,-38.865696 47.40952,-33.309256 39.15512,3.816064"
           fill="none"
           stroke="#c8a06a"
           stroke-width="6"
           stroke-linecap="round"
           id="path52"
           sodipodi:nodetypes="cc" /><circle
           cx="300.86249"
           cy="249.96066"
           r="6"
           fill="url(#beadOr)"
           id="circle65"
           style="fill:url(#radialGradient66)" /><path
           style="fill:none;fill-opacity:1;stroke:#3a3026;stroke-width:3.77953;stroke-opacity:1"
           d="m 214.12042,131.74352 -9.60796,-14.13251"
           id="path4"
           sodipodi:nodetypes="cc" /><path
           style="fill:none;fill-opacity:1;stroke:#3a3026;stroke-width:3.77953;stroke-opacity:1"
           d="M 299.98469,102.87432 299.74618,86.656036"
           id="path5"
           sodipodi:nodetypes="cc" /><path
           style="fill:none;fill-opacity:1;stroke:#3a3026;stroke-width:3.82287;stroke-opacity:1"
           d="m 386.57415,130.76774 9.51513,-12.37912"
           id="path16" /><path
           style="fill:none;fill-opacity:1;stroke:#3a3026;stroke-width:3.77953;stroke-opacity:1"
           d="m 439.50952,204.23851 16.21827,-5.24709"
           id="path30"
           sodipodi:nodetypes="cc" /><path
           style="fill:none;fill-opacity:1;stroke:#3a3026;stroke-width:3.77953;stroke-opacity:1"
           d="m 438.07849,293.91601 17.6493,6.20111"
           id="path31"
           sodipodi:nodetypes="cc" /><path
           style="fill:none;fill-opacity:1;stroke:#3a3026;stroke-width:3.77953;stroke-opacity:1"
           d="m 160.93686,295.82404 -16.21828,5.24709"
           id="path42"
           sodipodi:nodetypes="cc" /><path
           style="fill:none;fill-opacity:1;stroke:#3a3026;stroke-width:3.77953;stroke-opacity:1"
           d="m 160.45985,203.7615 -16.69528,-4.77008"
           id="path43" /><path
           style="fill:none;fill-opacity:1;stroke:#3a3026;stroke-width:3.77953;stroke-opacity:1"
           d="M 214.00399,368.80626 205.5371,382.878"
           id="path44" /><path
           style="fill:none;fill-opacity:1;stroke:#3a3026;stroke-width:3.77953;stroke-opacity:1"
           d="m 386.44238,369.04477 8.46689,13.35622"
           id="path45" /></g></g></g></svg>
